<svg width="211" height="23" viewBox="0 0 211 23" fill="none" xmlns="http://www.w3.org/2000/svg">
<path d="M9.68945 10C9.64779 9.47917 9.45247 9.07292 9.10352 8.78125C8.75977 8.48958 8.23633 8.34375 7.5332 8.34375C7.08529 8.34375 6.7181 8.39844 6.43164 8.50781C6.15039 8.61198 5.94206 8.75521 5.80664 8.9375C5.67122 9.11979 5.60091 9.32812 5.5957 9.5625C5.58529 9.75521 5.61914 9.92969 5.69727 10.0859C5.7806 10.237 5.91081 10.375 6.08789 10.5C6.26497 10.6198 6.49154 10.7292 6.76758 10.8281C7.04362 10.9271 7.37175 11.0156 7.75195 11.0937L9.06445 11.375C9.94987 11.5625 10.7077 11.8099 11.3379 12.1172C11.9681 12.4245 12.4837 12.7865 12.8848 13.2031C13.2858 13.6146 13.5801 14.0781 13.7676 14.5937C13.9603 15.1094 14.0592 15.6719 14.0645 16.2812C14.0592 17.3333 13.7962 18.224 13.2754 18.9531C12.7546 19.6823 12.0098 20.237 11.041 20.6172C10.0775 20.9974 8.91862 21.1875 7.56445 21.1875C6.17383 21.1875 4.96029 20.9818 3.92383 20.5703C2.89258 20.1589 2.09049 19.526 1.51758 18.6719C0.94987 17.8125 0.663411 16.7135 0.658203 15.375H4.7832C4.80924 15.8646 4.93164 16.276 5.15039 16.6094C5.36914 16.9427 5.67643 17.1953 6.07227 17.3672C6.47331 17.5391 6.94987 17.625 7.50195 17.625C7.96549 17.625 8.35352 17.5677 8.66602 17.4531C8.97852 17.3385 9.2155 17.1797 9.37695 16.9766C9.53841 16.7734 9.62174 16.5417 9.62695 16.2812C9.62174 16.0365 9.54102 15.8229 9.38477 15.6406C9.23372 15.4531 8.98372 15.2865 8.63477 15.1406C8.28581 14.9896 7.81445 14.849 7.2207 14.7187L5.62695 14.375C4.21029 14.0677 3.0931 13.5547 2.27539 12.8359C1.46289 12.112 1.05924 11.125 1.06445 9.875C1.05924 8.85937 1.33008 7.97135 1.87695 7.21094C2.42904 6.44531 3.19206 5.84896 4.16602 5.42187C5.14518 4.99479 6.26758 4.78125 7.5332 4.78125C8.82487 4.78125 9.94206 4.9974 10.8848 5.42969C11.8275 5.86198 12.554 6.47135 13.0645 7.25781C13.5801 8.03906 13.8405 8.95312 13.8457 10H9.68945ZM15.7168 21V5H27.248V8.5H20.0605V11.25H26.6543V14.75H20.0605V17.5H27.2168V21H15.7168ZM33.7773 5L37.0586 16.2812H37.1836L40.4648 5H45.3711L40.0898 21H34.1523L28.8711 5H33.7773ZM60.7559 5V21H57.1309L51.3496 12.5937H51.2559V21H46.9121V5H50.5996L56.2871 13.375H56.4121V5H60.7559ZM67.1934 21V5H78.7246V8.5H71.5371V11.25H78.1309V14.75H71.5371V17.5H78.6934V21H67.1934ZM89.5039 10C89.4622 9.47917 89.2669 9.07292 88.918 8.78125C88.5742 8.48958 88.0508 8.34375 87.3477 8.34375C86.8997 8.34375 86.5326 8.39844 86.2461 8.50781C85.9648 8.61198 85.7565 8.75521 85.6211 8.9375C85.4857 9.11979 85.4154 9.32812 85.4102 9.5625C85.3997 9.75521 85.4336 9.92969 85.5117 10.0859C85.5951 10.237 85.7253 10.375 85.9023 10.5C86.0794 10.6198 86.306 10.7292 86.582 10.8281C86.8581 10.9271 87.1862 11.0156 87.5664 11.0937L88.8789 11.375C89.7643 11.5625 90.5221 11.8099 91.1523 12.1172C91.7826 12.4245 92.2982 12.7865 92.6992 13.2031C93.1003 13.6146 93.3945 14.0781 93.582 14.5937C93.7747 15.1094 93.8737 15.6719 93.8789 16.2812C93.8737 17.3333 93.6107 18.224 93.0898 18.9531C92.569 19.6823 91.8242 20.237 90.8555 20.6172C89.8919 20.9974 88.7331 21.1875 87.3789 21.1875C85.9883 21.1875 84.7747 20.9818 83.7383 20.5703C82.707 20.1589 81.9049 19.526 81.332 18.6719C80.7643 17.8125 80.4779 16.7135 80.4727 15.375H84.5977C84.6237 15.8646 84.7461 16.276 84.9648 16.6094C85.1836 16.9427 85.4909 17.1953 85.8867 17.3672C86.2878 17.5391 86.7643 17.625 87.3164 17.625C87.7799 17.625 88.168 17.5677 88.4805 17.4531C88.793 17.3385 89.0299 17.1797 89.1914 16.9766C89.3529 16.7734 89.4362 16.5417 89.4414 16.2812C89.4362 16.0365 89.3555 15.8229 89.1992 15.6406C89.0482 15.4531 88.7982 15.2865 88.4492 15.1406C88.1003 14.9896 87.6289 14.849 87.0352 14.7187L85.4414 14.375C84.0247 14.0677 82.9076 13.5547 82.0898 12.8359C81.2773 12.112 80.8737 11.125 80.8789 9.875C80.8737 8.85937 81.1445 7.97135 81.6914 7.21094C82.2435 6.44531 83.0065 5.84896 83.9805 5.42187C84.9596 4.99479 86.082 4.78125 87.3477 4.78125C88.6393 4.78125 89.7565 4.9974 90.6992 5.42969C91.6419 5.86198 92.3685 6.47135 92.8789 7.25781C93.3945 8.03906 93.6549 8.95312 93.6602 10H89.5039ZM95.5312 21V5H102.438C103.625 5 104.664 5.23437 105.555 5.70312C106.445 6.17187 107.138 6.83073 107.633 7.67969C108.128 8.52865 108.375 9.52083 108.375 10.6562C108.375 11.8021 108.12 12.7943 107.609 13.6328C107.104 14.4714 106.393 15.1172 105.477 15.5703C104.565 16.0234 103.5 16.25 102.281 16.25H98.1563V12.875H101.406C101.917 12.875 102.352 12.7865 102.711 12.6094C103.076 12.4271 103.354 12.1693 103.547 11.8359C103.745 11.5026 103.844 11.1094 103.844 10.6562C103.844 10.1979 103.745 9.80729 103.547 9.48438C103.354 9.15625 103.076 8.90625 102.711 8.73437C102.352 8.55729 101.917 8.46875 101.406 8.46875H99.875V21H95.5312ZM125.469 13C125.469 14.7812 125.122 16.2839 124.43 17.5078C123.737 18.7266 122.802 19.651 121.625 20.2812C120.448 20.9062 119.135 21.2187 117.688 21.2187C116.229 21.2187 114.911 20.9036 113.734 20.2734C112.563 19.638 111.63 18.7109 110.938 17.4922C110.25 16.2682 109.906 14.7708 109.906 13C109.906 11.2187 110.25 9.71875 110.938 8.5C111.63 7.27604 112.563 6.35156 113.734 5.72656C114.911 5.09635 116.229 4.78125 117.688 4.78125C119.135 4.78125 120.448 5.09635 121.625 5.72656C122.802 6.35156 123.737 7.27604 124.43 8.5C125.122 9.71875 125.469 11.2187 125.469 13ZM121 13C121 12.0417 120.872 11.2344 120.617 10.5781C120.367 9.91667 119.995 9.41667 119.5 9.07812C119.01 8.73437 118.406 8.5625 117.688 8.5625C116.969 8.5625 116.362 8.73437 115.867 9.07812C115.378 9.41667 115.005 9.91667 114.75 10.5781C114.5 11.2344 114.375 12.0417 114.375 13C114.375 13.9583 114.5 14.7682 114.75 15.4297C115.005 16.0859 115.378 16.5859 115.867 16.9297C116.362 17.2682 116.969 17.4375 117.688 17.4375C118.406 17.4375 119.01 17.2682 119.5 16.9297C119.995 16.5859 120.367 16.0859 120.617 15.4297C120.872 14.7682 121 13.9583 121 13ZM127.479 21V5H134.385C135.572 5 136.611 5.21615 137.502 5.64844C138.393 6.08073 139.085 6.70312 139.58 7.51563C140.075 8.32812 140.322 9.30208 140.322 10.4375C140.322 11.5833 140.067 12.5495 139.557 13.3359C139.051 14.1224 138.34 14.7161 137.424 15.1172C136.512 15.5182 135.447 15.7187 134.229 15.7187H130.104V12.3438H133.354C133.864 12.3438 134.299 12.2812 134.658 12.1562C135.023 12.026 135.301 11.8203 135.494 11.5391C135.692 11.2578 135.791 10.8906 135.791 10.4375C135.791 9.97917 135.692 9.60677 135.494 9.32031C135.301 9.02865 135.023 8.8151 134.658 8.67969C134.299 8.53906 133.864 8.46875 133.354 8.46875H131.822V21H127.479ZM136.854 13.6562L140.854 21H136.135L132.229 13.6562H136.854ZM141.736 8.5V5H155.643V8.5H150.83V21H146.549V8.5H141.736ZM157.277 21V5H168.809V8.5H161.621V11.25H168.215V14.75H161.621V17.5H168.777V21H157.277ZM179.588 10C179.546 9.47917 179.351 9.07292 179.002 8.78125C178.658 8.48958 178.135 8.34375 177.432 8.34375C176.984 8.34375 176.617 8.39844 176.33 8.50781C176.049 8.61198 175.84 8.75521 175.705 8.9375C175.57 9.11979 175.499 9.32812 175.494 9.5625C175.484 9.75521 175.518 9.92969 175.596 10.0859C175.679 10.237 175.809 10.375 175.986 10.5C176.163 10.6198 176.39 10.7292 176.666 10.8281C176.942 10.9271 177.27 11.0156 177.65 11.0937L178.963 11.375C179.848 11.5625 180.606 11.8099 181.236 12.1172C181.867 12.4245 182.382 12.7865 182.783 13.2031C183.184 13.6146 183.479 14.0781 183.666 14.5937C183.859 15.1094 183.958 15.6719 183.963 16.2812C183.958 17.3333 183.695 18.224 183.174 18.9531C182.653 19.6823 181.908 20.237 180.939 20.6172C179.976 20.9974 178.817 21.1875 177.463 21.1875C176.072 21.1875 174.859 20.9818 173.822 20.5703C172.791 20.1589 171.989 19.526 171.416 18.6719C170.848 17.8125 170.562 16.7135 170.557 15.375H174.682C174.708 15.8646 174.83 16.276 175.049 16.6094C175.268 16.9427 175.575 17.1953 175.971 17.3672C176.372 17.5391 176.848 17.625 177.4 17.625C177.864 17.625 178.252 17.5677 178.564 17.4531C178.877 17.3385 179.114 17.1797 179.275 16.9766C179.437 16.7734 179.52 16.5417 179.525 16.2812C179.52 16.0365 179.439 15.8229 179.283 15.6406C179.132 15.4531 178.882 15.2865 178.533 15.1406C178.184 14.9896 177.713 14.849 177.119 14.7187L175.525 14.375C174.109 14.0677 172.992 13.5547 172.174 12.8359C171.361 12.112 170.958 11.125 170.963 9.875C170.958 8.85937 171.229 7.97135 171.775 7.21094C172.327 6.44531 173.09 5.84896 174.064 5.42187C175.044 4.99479 176.166 4.78125 177.432 4.78125C178.723 4.78125 179.84 4.9974 180.783 5.42969C181.726 5.86198 182.452 6.47135 182.963 7.25781C183.479 8.03906 183.739 8.95312 183.744 10H179.588ZM188.967 22.54H210.967V0.54H188.967V22.54Z" fill="white"/>
</svg>
